<svg width="400" height="300" viewBox="0 0 400 300" xmlns="http://www.w3.org/2000/svg">
  <rect width="400" height="300" fill="#f1f5f9"/>
  
  <!-- Placeholder icon -->
  <rect x="150" y="80" width="100" height="80" fill="#e2e8f0" rx="8"/>
  <rect x="170" y="100" width="60" height="8" fill="#cbd5e1" rx="2"/>
  <rect x="170" y="115" width="40" height="6" fill="#cbd5e1" rx="2"/>
  <rect x="170" y="125" width="50" height="6" fill="#cbd5e1" rx="2"/>
  <rect x="170" y="140" width="45" height="6" fill="#cbd5e1" rx="2"/>
  
  <!-- Document icon -->
  <rect x="185" y="90" width="30" height="35" fill="#94a3b8" rx="2"/>
  <rect x="190" y="95" width="20" height="2" fill="#f1f5f9" rx="1"/>
  <rect x="190" y="100" width="15" height="2" fill="#f1f5f9" rx="1"/>
  <rect x="190" y="105" width="18" height="2" fill="#f1f5f9" rx="1"/>
  <rect x="190" y="110" width="12" height="2" fill="#f1f5f9" rx="1"/>
  <rect x="190" y="115" width="16" height="2" fill="#f1f5f9" rx="1"/>
  
  <!-- Template preview text -->
  <text x="200" y="200" text-anchor="middle" font-family="Arial, sans-serif" font-size="16" fill="#64748b" font-weight="500">Template Preview</text>
  <text x="200" y="220" text-anchor="middle" font-family="Arial, sans-serif" font-size="12" fill="#94a3b8">Image not available</text>
  
  <!-- Template name -->
  <text x="200" y="290" text-anchor="middle" font-family="Arial, sans-serif" font-size="12" fill="#94a3b8">Default Template</text>
</svg>