<svg width="400" height="300" viewBox="0 0 400 300" xmlns="http://www.w3.org/2000/svg">
  <rect width="400" height="300" fill="#ffffff"/>
  
  <!-- Executive header with gold accent -->
  <rect x="20" y="20" width="360" height="60" fill="#1a202c"/>
  <rect x="20" y="20" width="360" height="4" fill="#d69e2e"/>
  
  <!-- Executive name styling -->
  <rect x="40" y="35" width="180" height="14" fill="#ffffff" rx="2"/>
  <rect x="40" y="55" width="120" height="8" fill="#e2e8f0" rx="2"/>
  
  <!-- Contact with executive styling -->
  <rect x="280" y="35" width="80" height="6" fill="#ffffff" rx="2"/>
  <rect x="280" y="45" width="85" height="6" fill="#e2e8f0" rx="2"/>
  <rect x="280" y="55" width="75" height="6" fill="#e2e8f0" rx="2"/>
  <rect x="280" y="65" width="90" height="6" fill="#e2e8f0" rx="2"/>
  
  <!-- Executive summary -->
  <rect x="40" y="100" width="140" height="10" fill="#1a202c" rx="2"/>
  <rect x="40" y="118" width="320" height="5" fill="#4a5568" rx="1"/>
  <rect x="40" y="128" width="300" height="5" fill="#4a5568" rx="1"/>
  <rect x="40" y="138" width="280" height="5" fill="#4a5568" rx="1"/>
  
  <!-- Professional experience with executive formatting -->
  <rect x="40" y="165" width="160" height="10" fill="#1a202c" rx="2"/>
  
  <rect x="40" y="185" width="200" height="8" fill="#2d3748" rx="2"/>
  <rect x="320" y="185" width="60" height="8" fill="#d69e2e" rx="2"/>
  <rect x="40" y="198" width="140" height="6" fill="#718096" rx="2"/>
  <rect x="40" y="208" width="280" height="4" fill="#a0aec0" rx="1"/>
  <rect x="40" y="218" width="260" height="4" fill="#a0aec0" rx="1"/>
  
  <!-- Key achievements with bullet points -->
  <circle cx="50" cy="235" r="2" fill="#d69e2e"/>
  <rect x="60" y="232" width="250" height="4" fill="#4a5568" rx="1"/>
  <circle cx="50" cy="245" r="2" fill="#d69e2e"/>
  <rect x="60" y="242" width="230" height="4" fill="#4a5568" rx="1"/>
  <circle cx="50" cy="255" r="2" fill="#d69e2e"/>
  <rect x="60" y="252" width="240" height="4" fill="#4a5568" rx="1"/>
  
  <!-- Executive border accent -->
  <rect x="20" y="20" width="360" height="250" fill="none" stroke="#e2e8f0" stroke-width="2"/>
  <rect x="22" y="22" width="356" height="246" fill="none" stroke="#d69e2e" stroke-width="1"/>
  
  <!-- Template name -->
  <text x="200" y="290" text-anchor="middle" font-family="Arial, sans-serif" font-size="12" fill="#4a5568">Executive Template</text>
</svg>