<svg width="400" height="300" viewBox="0 0 400 300" xmlns="http://www.w3.org/2000/svg">
  <rect width="400" height="300" fill="#ffffff"/>
  
  <!-- Minimal header - just name -->
  <rect x="50" y="40" width="180" height="14" fill="#000000" rx="2"/>
  <rect x="50" y="60" width="120" height="6" fill="#666666" rx="1"/>
  
  <!-- Contact - minimal and clean -->
  <rect x="50" y="80" width="80" height="4" fill="#999999" rx="1"/>
  <rect x="140" y="80" width="90" height="4" fill="#999999" rx="1"/>
  <rect x="240" y="80" width="85" height="4" fill="#999999" rx="1"/>
  
  <!-- Simple divider -->
  <line x1="50" y1="110" x2="350" y2="110" stroke="#e5e5e5" stroke-width="1"/>
  
  <!-- Experience - minimal styling -->
  <rect x="50" y="130" width="80" height="8" fill="#000000" rx="1"/>
  
  <rect x="50" y="150" width="140" height="6" fill="#333333" rx="1"/>
  <rect x="300" y="150" width="50" height="6" fill="#666666" rx="1"/>
  <rect x="50" y="165" width="250" height="4" fill="#666666" rx="1"/>
  <rect x="50" y="175" width="230" height="4" fill="#666666" rx="1"/>
  
  <rect x="50" y="200" width="130" height="6" fill="#333333" rx="1"/>
  <rect x="300" y="200" width="50" height="6" fill="#666666" rx="1"/>
  <rect x="50" y="215" width="240" height="4" fill="#666666" rx="1"/>
  <rect x="50" y="225" width="220" height="4" fill="#666666" rx="1"/>
  
  <!-- Education - simple -->
  <rect x="50" y="250" width="70" height="8" fill="#000000" rx="1"/>
  <rect x="50" y="265" width="120" height="5" fill="#333333" rx="1"/>
  <rect x="300" y="265" width="50" height="5" fill="#666666" rx="1"/>
  
  <!-- Template name -->
  <text x="200" y="290" text-anchor="middle" font-family="Arial, sans-serif" font-size="12" fill="#999999">Minimal Template</text>
</svg>