<svg width="400" height="300" viewBox="0 0 400 300" xmlns="http://www.w3.org/2000/svg">
  <rect width="400" height="300" fill="#f8fafc"/>
  
  <!-- Header section -->
  <rect x="20" y="20" width="360" height="60" fill="#1e293b" rx="4"/>
  <rect x="30" y="30" width="120" height="8" fill="#ffffff" rx="2"/>
  <rect x="30" y="45" width="80" height="6" fill="#94a3b8" rx="2"/>
  <rect x="30" y="55" width="100" height="6" fill="#94a3b8" rx="2"/>
  
  <!-- Contact info -->
  <rect x="280" y="30" width="90" height="6" fill="#ffffff" rx="2"/>
  <rect x="280" y="40" width="85" height="6" fill="#94a3b8" rx="2"/>
  <rect x="280" y="50" width="95" height="6" fill="#94a3b8" rx="2"/>
  <rect x="280" y="60" width="75" height="6" fill="#94a3b8" rx="2"/>
  
  <!-- Main content -->
  <rect x="20" y="100" width="180" height="8" fill="#1e293b" rx="2"/>
  <rect x="20" y="115" width="360" height="4" fill="#64748b" rx="1"/>
  <rect x="20" y="125" width="340" height="4" fill="#64748b" rx="1"/>
  <rect x="20" y="135" width="320" height="4" fill="#64748b" rx="1"/>
  
  <!-- Experience section -->
  <rect x="20" y="160" width="120" height="8" fill="#1e293b" rx="2"/>
  <rect x="20" y="175" width="200" height="6" fill="#475569" rx="2"/>
  <rect x="20" y="185" width="150" height="4" fill="#94a3b8" rx="1"/>
  <rect x="20" y="195" width="300" height="4" fill="#64748b" rx="1"/>
  <rect x="20" y="205" width="280" height="4" fill="#64748b" rx="1"/>
  
  <rect x="20" y="225" width="180" height="6" fill="#475569" rx="2"/>
  <rect x="20" y="235" width="140" height="4" fill="#94a3b8" rx="1"/>
  <rect x="20" y="245" width="290" height="4" fill="#64748b" rx="1"/>
  <rect x="20" y="255" width="270" height="4" fill="#64748b" rx="1"/>
  
  <!-- Modern accent -->
  <rect x="0" y="0" width="4" height="300" fill="#3b82f6"/>
  
  <!-- Template name -->
  <text x="200" y="290" text-anchor="middle" font-family="Arial, sans-serif" font-size="12" fill="#64748b">Modern Template</text>
</svg>