<svg width="400" height="300" viewBox="0 0 400 300" xmlns="http://www.w3.org/2000/svg">
  <rect width="400" height="300" fill="#ffffff"/>
  
  <!-- Header with border -->
  <rect x="20" y="20" width="360" height="50" fill="#ffffff" stroke="#e2e8f0" stroke-width="1"/>
  <rect x="30" y="30" width="140" height="10" fill="#1e293b" rx="2"/>
  <rect x="30" y="45" width="90" height="6" fill="#64748b" rx="2"/>
  
  <!-- Contact info aligned right -->
  <rect x="280" y="30" width="80" height="5" fill="#64748b" rx="1"/>
  <rect x="280" y="38" width="85" height="5" fill="#64748b" rx="1"/>
  <rect x="280" y="46" width="75" height="5" fill="#64748b" rx="1"/>
  <rect x="280" y="54" width="90" height="5" fill="#64748b" rx="1"/>
  
  <!-- Professional summary -->
  <rect x="20" y="90" width="100" height="8" fill="#1e293b" rx="2"/>
  <line x1="20" y1="105" x2="380" y2="105" stroke="#e2e8f0" stroke-width="1"/>
  <rect x="20" y="115" width="360" height="4" fill="#64748b" rx="1"/>
  <rect x="20" y="125" width="340" height="4" fill="#64748b" rx="1"/>
  <rect x="20" y="135" width="300" height="4" fill="#64748b" rx="1"/>
  
  <!-- Experience section -->
  <rect x="20" y="160" width="120" height="8" fill="#1e293b" rx="2"/>
  <line x1="20" y1="175" x2="380" y2="175" stroke="#e2e8f0" stroke-width="1"/>
  
  <rect x="20" y="185" width="180" height="6" fill="#374151" rx="2"/>
  <rect x="320" y="185" width="60" height="6" fill="#6b7280" rx="2"/>
  <rect x="20" y="195" width="280" height="4" fill="#64748b" rx="1"/>
  <rect x="20" y="205" width="260" height="4" fill="#64748b" rx="1"/>
  
  <rect x="20" y="225" width="170" height="6" fill="#374151" rx="2"/>
  <rect x="320" y="225" width="60" height="6" fill="#6b7280" rx="2"/>
  <rect x="20" y="235" width="270" height="4" fill="#64748b" rx="1"/>
  <rect x="20" y="245" width="250" height="4" fill="#64748b" rx="1"/>
  
  <!-- Professional border -->
  <rect x="20" y="20" width="360" height="250" fill="none" stroke="#e2e8f0" stroke-width="1"/>
  
  <!-- Template name -->
  <text x="200" y="290" text-anchor="middle" font-family="Arial, sans-serif" font-size="12" fill="#64748b">Professional Template</text>
</svg>